<?xml version="1.0" standalone="no"?>
<!DOCTYPE svg PUBLIC "-//W3C//DTD SVG 20010904//EN"
 "http://www.w3.org/TR/2001/REC-SVG-20010904/DTD/svg10.dtd">
<svg version="1.0" xmlns="http://www.w3.org/2000/svg"
 width="512.000000pt" height="512.000000pt" viewBox="0 0 512.000000 512.000000"
 preserveAspectRatio="xMidYMid meet">
<metadata>
Created by potrace 1.14, written by Peter Selinger 2001-2017
</metadata>
<g transform="translate(0.000000,512.000000) scale(0.100000,-0.100000)"
fill="#000000" stroke="none">
<path d="M1243 5108 c-12 -6 -28 -24 -37 -41 -13 -28 -13 -34 4 -68 11 -20 26
-39 35 -43 9 -3 239 -6 510 -6 l494 0 26 23 c50 43 28 129 -37 140 -60 11
-972 6 -995 -5z"/>
<path d="M3148 5115 c-2 -2 -25 -6 -53 -10 -246 -32 -448 -173 -517 -359 -25
-68 -32 -115 -30 -212 1 -118 42 -243 108 -329 25 -34 44 -115 26 -115 -6 0
-13 4 -16 9 -3 4 -37 18 -77 31 -72 22 -204 31 -279 18 -19 -4 -105 -20 -190
-36 -85 -17 -173 -34 -195 -38 -22 -4 -44 -8 -50 -9 -5 -2 -64 -13 -130 -25
-245 -45 -298 -65 -379 -140 -171 -158 -222 -415 -125 -628 31 -70 69 -121
160 -217 31 -33 69 -74 85 -91 16 -18 84 -91 152 -162 173 -184 165 -172 146
-218 -27 -67 -125 -256 -172 -334 -42 -69 -223 -346 -481 -735 -123 -186 -221
-306 -330 -406 -114 -103 -191 -159 -425 -304 -244 -152 -312 -210 -346 -300
-92 -242 69 -492 322 -501 121 -5 148 7 448 204 130 85 266 180 296 207 7 5
31 26 55 45 24 19 87 74 139 121 85 77 132 125 235 239 62 69 191 237 258 336
37 56 79 106 93 113 17 7 124 11 336 11 277 0 309 -2 304 -16 -3 -8 -58 -104
-122 -212 -152 -256 -147 -248 -233 -392 -41 -69 -83 -152 -93 -185 -56 -177
29 -363 202 -444 46 -22 69 -26 145 -26 79 0 97 4 149 29 33 16 77 45 98 64
32 29 152 217 277 434 83 145 335 558 341 558 3 0 17 -12 30 -27 26 -31 172
-195 180 -203 3 -3 37 -41 75 -85 39 -44 79 -89 90 -101 11 -11 34 -36 50 -55
157 -180 188 -209 252 -240 71 -34 161 -44 238 -27 33 8 160 32 385 74 14 2
48 9 75 14 28 5 66 12 85 15 132 22 197 51 266 120 170 169 143 455 -50 550
-81 39 -137 41 -296 10 -14 -3 -50 -9 -80 -15 -57 -10 -72 -13 -155 -29 -27
-6 -63 -12 -80 -15 -30 -5 -117 -21 -165 -31 -14 -3 -45 -8 -70 -12 l-45 -5
27 28 c48 52 81 132 86 210 6 100 -10 156 -80 275 -93 159 -129 221 -150 259
-11 19 -42 72 -69 118 -155 263 -200 407 -214 687 -5 100 -14 303 -20 460 -7
157 -13 209 -31 275 -26 91 -90 192 -161 254 -18 15 -31 32 -28 36 3 4 22 11
42 15 21 4 43 10 48 15 6 4 21 11 34 15 71 22 190 121 250 209 86 124 127 294
98 404 l-15 54 34 50 c64 95 68 182 14 311 -74 177 -223 313 -421 384 -65 23
-91 26 -216 29 -78 1 -143 1 -145 -1z m-1025 -1725 c-7 -25 -19 -26 -32 -2 -8
15 -5 18 14 20 18 1 22 -2 18 -18z m833 -1141 c3 -24 12 -72 20 -107 7 -35 14
-68 14 -74 0 -6 -27 17 -61 51 l-60 61 36 61 c21 33 39 58 41 56 3 -3 7 -24
10 -48z"/>
<path d="M1773 4772 c-31 -5 -63 -48 -63 -84 0 -40 42 -78 89 -79 20 -1 128
-1 240 -1 185 0 206 2 229 19 54 40 43 122 -20 141 -30 10 -422 13 -475 4z"/>
<path d="M731 2717 c-14 -6 -30 -26 -37 -42 -16 -40 4 -91 41 -105 15 -6 155
-10 336 -10 325 0 357 4 373 45 13 35 5 73 -20 98 l-26 26 -321 0 c-239 1
-328 -2 -346 -12z"/>
<path d="M1075 2378 c-48 -28 -60 -87 -26 -129 16 -20 31 -25 93 -29 40 -3
117 -3 172 0 87 5 100 8 117 29 35 42 21 103 -28 129 -29 16 -301 16 -328 0z"/>
</g>
</svg>
